# xmcd CD database file
#
# Track frame offsets:
#	150
#	19751
#	39766
#	61778
#	84052
#	110238
#	133852
#	154014
#	175854
#	200838
#	217747
#	233573
#	253673
#	274597
#	296667
#	325197
#
# Disc length: 4738 seconds
#
# Revision: 0
# Processed by: cddbd v1.5.1PL0 Copyright (c) Steve Scherf et al.
# Submitted via: Feurio! 1.66 - http://www.feurio.com
#
DISCID=d7128010
DTITLE=Warren Haynes - Live At Bonnaroo
DYEAR=1900
DGENRE=
TTITLE0=Lucky
TTITLE1=Patchwork Quilt
TTITLE2=To Lay Me Down
TTITLE3=Glora Road
TTITLE4=The RealThing
TTITLE5=One
TTITLE6=In My Life
TTITLE7=I'll Be The One
TTITLE8=Fallen Down
TTITLE9=Forevermore
TTITLE10=Beautifully Broken
TTITLE11=I've Got Dreams To Remember
TTITLE12=Tastes Like Wine
TTITLE13=Wasted Time
TTITLE14=Stella Blue
TTITLE15=Soulshine
EXTD=
EXTT0=
EXTT1=
EXTT2=
EXTT3=
EXTT4=
EXTT5=
EXTT6=
EXTT7=
EXTT8=
EXTT9=
EXTT10=
EXTT11=
EXTT12=
EXTT13=
EXTT14=
EXTT15=
PLAYORDER=
